<?xml version="1.0" encoding="UTF-8" standalone="no"?>
<!-- Created with Inkscape (http://www.inkscape.org/) -->

<svg
   xmlns:dc="http://purl.org/dc/elements/1.1/"
   xmlns:cc="http://creativecommons.org/ns#"
   xmlns:rdf="http://www.w3.org/1999/02/22-rdf-syntax-ns#"
   xmlns:svg="http://www.w3.org/2000/svg"
   xmlns="http://www.w3.org/2000/svg"
   xmlns:sodipodi="http://sodipodi.sourceforge.net/DTD/sodipodi-0.dtd"
   xmlns:inkscape="http://www.inkscape.org/namespaces/inkscape"
   width="81.573929mm"
   height="42.791798mm"
   viewBox="0 0 289.04148 151.62448"
   id="svg2"
   version="1.1"
   inkscape:version="0.91 r13725"
   sodipodi:docname="FileServerV2.svg">
  <defs
     id="defs4" />
  <sodipodi:namedview
     id="base"
     pagecolor="#000000"
     bordercolor="#666666"
     borderopacity="1.0"
     inkscape:pageopacity="0"
     inkscape:pageshadow="2"
     inkscape:zoom="1.979899"
     inkscape:cx="134.77688"
     inkscape:cy="44.803797"
     inkscape:document-units="px"
     inkscape:current-layer="layer1"
     showgrid="false"
     fit-margin-top="5"
     fit-margin-left="5"
     fit-margin-right="5"
     fit-margin-bottom="5"
     inkscape:window-width="1920"
     inkscape:window-height="1025"
     inkscape:window-x="1920"
     inkscape:window-y="345"
     inkscape:window-maximized="1" />
  <metadata
     id="metadata7">
    <rdf:RDF>
      <cc:Work
         rdf:about="">
        <dc:format>image/svg+xml</dc:format>
        <dc:type
           rdf:resource="http://purl.org/dc/dcmitype/StillImage" />
        <dc:title></dc:title>
      </cc:Work>
    </rdf:RDF>
  </metadata>
  <g
     inkscape:groupmode="layer"
     id="layer2"
     inkscape:label="Layer 2"
     transform="translate(-193.99301,-408.76553)" />
  <g
     inkscape:label="Layer 1"
     inkscape:groupmode="layer"
     id="layer1"
     transform="translate(-193.99301,-408.76553)">
    <flowRoot
       xml:space="preserve"
       id="flowRoot4136"
       style="font-style:normal;font-weight:normal;font-size:30px;line-height:3.99999991%;font-family:Sans;letter-spacing:0px;word-spacing:0px;fill:#000000;fill-opacity:1;stroke:none;stroke-width:1px;stroke-linecap:butt;stroke-linejoin:miter;stroke-opacity:1"><flowRegion
         id="flowRegion4138"><rect
           id="rect4140"
           width="660"
           height="405.71429"
           x="91.428574"
           y="160.93364" /></flowRegion><flowPara
         id="flowPara4142"></flowPara></flowRoot>    <g
       transform="translate(-105.71428,322.85715)"
       style="font-style:normal;font-variant:normal;font-weight:normal;font-stretch:normal;font-size:90px;line-height:3.99999991%;font-family:'Comic Sans MS';-inkscape-font-specification:'Comic Sans MS, Normal';text-align:start;letter-spacing:0px;word-spacing:0px;writing-mode:lr-tb;text-anchor:start;fill:#ffffff;fill-opacity:1;stroke:none;stroke-width:1px;stroke-linecap:butt;stroke-linejoin:miter;stroke-opacity:1"
       id="flowRoot4144">
      <path
         d="m 554.20117,183.64933 q -0.0879,3.2959 0.79102,4.74609 0.8789,1.4502 2.24121,2.06543 1.40625,0.57129 2.68066,0.57129 5.49317,0 7.0752,-3.95508 -0.21973,-0.79101 -0.74707,-1.31836 -0.52735,-0.52734 -1.23047,-0.30761 -0.0879,0 -0.92285,0.4834 -0.79102,0.43945 -1.31836,0.43945 -2.15332,-0.17578 -2.90039,-1.62598 -0.35157,-0.65918 -0.0439,-1.62597 0.30762,-1.01075 1.05469,-2.8125 0.79101,-1.80176 1.71387,-3.2959 1.3623,-2.06543 2.68066,-2.06543 1.71387,0 3.47168,1.97754 1.75781,1.93359 1.66992,5.00976 0,2.90039 -1.49414,6.94336 -1.45019,4.04297 -3.60351,6.76758 -1.36231,1.66992 -2.417,2.59277 -2.3291,1.97754 -5.44922,1.97754 -3.73535,0 -5.44921,-2.76855 -1.71387,-2.76856 -1.62598,-6.76758 0.0439,-3.42773 0.70312,-9.53613 0.70313,-6.15235 2.06543,-13.5791 0.70313,-2.15333 2.85645,-7.60254 0.21973,-0.52735 0.43945,-0.43946 0.26367,0.0879 0.26367,0.43946 -0.13183,2.68066 -1.09863,10.23925 -0.9668,7.5586 -1.18652,10.3711 -0.21973,2.46094 -0.21973,3.07617 z m 8.26172,-22.80762 q 0,-0.96679 1.62598,-4.1748 1.66992,-3.25196 2.15332,-3.25196 0.96679,-0.3955 2.8125,1.49415 1.8457,1.8457 1.97754,2.90039 0,1.40625 -1.53809,4.04296 -1.53809,2.63672 -2.24121,2.63672 -0.26367,-0.13183 -1.8457,-1.14257 -1.53809,-1.05469 -2.28516,-1.58204 -0.65918,-0.43945 -0.65918,-0.92285 z"
         style=""
         id="path4185" />
      <path
         d="m 540.00684,168.57609 q -0.57129,-0.0439 -0.57129,0.57129 -0.0439,0.61523 -0.13184,1.14257 -0.57129,-0.8789 -0.83496,-2.46093 -0.26367,-1.58203 -0.26367,-3.03223 0,-2.54883 0.43945,-5.31738 0.26367,-1.40625 0.4834,-2.68067 0.17578,-1.31836 0.35156,-2.50488 0.0879,-0.0879 0.26367,-0.17578 0.17579,1.49414 0.17579,3.47168 0,4.30664 3.51562,4.30664 1.3623,0 2.10938,-1.14258 0.79101,-1.18652 1.01074,-2.02148 0.70312,-0.13184 0.74707,1.66992 0,4.6582 -2.90039,7.29492 -0.70313,0.57129 -1.58203,0.83496 -0.87891,0.21973 -1.71387,0.17578 -0.83496,-0.0439 -1.09863,-0.13183 z m -5.09766,47.76855 q 0,0.26367 1.31836,1.31836 1.27441,1.05469 1.88965,1.58203 0.65918,0.57129 1.01074,0.57129 1.40625,0 3.7793,-4.79004 0.96679,0.70313 2.24121,1.97754 1.27441,1.27442 1.75781,1.27442 0.74707,0 2.3291,-2.24122 1.62598,-2.28515 1.62598,-3.95507 -0.0879,-1.40625 -1.62598,-3.03223 -1.49414,-1.58203 -2.59277,-1.58203 -0.35156,0 -1.4502,1.80176 -1.05468,1.80175 -1.93359,3.25195 -0.74707,-1.05469 -2.19727,-2.46094 -1.40625,-1.3623 -2.15332,-1.05469 -0.3955,0 -2.19726,3.38379 -1.80176,3.38379 -1.80176,3.95508 z"
         style=""
         id="path4187" />
      <path
         d="m 536.75488,153.50285 3.42774,-7.64649 q 0.26367,-0.43945 0.52734,-0.39551 0.30762,0.0439 0.30762,0.83496 -0.30762,2.417 -0.57129,4.83399 -0.26367,2.37305 -0.39551,4.79004 l -0.79101,20.61035 q -0.21973,7.4707 -2.19727,15.64453 -1.49414,5.80078 -4.21875,10.54688 -7.11914,13.49121 -18.98438,13.40332 -5.66894,0 -8.52539,-3.51563 -2.8125,-3.51562 -2.8125,-8.87695 0.0879,-3.73535 1.14258,-7.51465 1.09864,-3.82324 2.63672,-7.16309 1.53809,-3.33984 2.50488,-5.05371 1.01075,-1.71387 1.53809,-1.53808 0.61523,0.17578 0.30762,0.8789 -0.30762,0.65918 -1.66992,3.60352 -1.31836,2.90039 -1.88965,4.52637 -1.23047,3.60351 -1.23047,6.10839 0,4.96582 3.60351,7.29493 2.94434,1.80175 7.29493,1.80175 2.3291,0 4.83398,-0.61523 2.54883,-0.61524 4.70215,-2.06543 5.66894,-3.7793 7.91015,-10.98633 1.53809,-4.96582 1.53809,-11.86523 0,-5.49317 0.0439,-10.10743 0.0879,-4.6582 0.17578,-9.53613 0.13183,-4.87793 0.30761,-6.15234 0.21973,-1.31836 0.4834,-1.8457 z"
         style=""
         id="path4189" />
      <path
         d="m 495.40234,166.46671 q -1.88964,4.65821 -3.38379,4.7461 -1.01074,0.0439 -1.88964,0.30761 -0.87891,0.21973 -1.71387,0.79102 -0.79102,0.57129 -1.93359,2.15332 -3.7793,6.37207 -5.18555,7.82226 -1.36231,1.40625 -3.73535,1.23047 -1.31836,-4.39453 0,-8.833 1.62597,-0.30762 3.42773,-0.26368 1.8457,0 1.71387,0 0.92285,0 1.88965,-1.31836 0.3955,-0.52734 1.3623,-1.88964 0.57129,-0.79102 1.97754,-2.50489 1.40625,-1.71386 2.90039,-2.06543 1.49414,-0.35156 2.59277,-0.35156 0.61524,-0.92285 1.09864,-1.75781 0.52734,-0.87891 0.8789,-1.05469 0.52735,-0.26367 0.61524,0.65918 0,0.65918 -0.61524,2.3291 z"
         style=""
         id="path4191" />
      <path
         d="m 475.58301,175.16788 q 0.4834,-0.21972 0.92285,-0.30761 0.4834,-0.0879 0.9668,-0.17578 0.83496,1.14257 1.09863,2.3291 0.26367,1.18652 0.17578,2.3291 -0.0879,1.14258 -0.4834,2.24121 -0.35156,1.05469 -0.79101,1.93359 -0.61524,-0.0879 -1.80176,-0.0879 -1.14258,0 -2.59278,0.39551 -1.27441,0.35156 -3.51562,1.40625 -3.25195,1.80176 -5.44922,4.57031 -2.15332,2.76856 -5.22949,7.0752 -3.03223,4.26269 -6.19629,7.33887 -3.16406,3.12011 -5.22949,4.61425 -2.06543,1.49414 -3.82324,2.50489 -1.75782,1.05468 -3.7793,1.88964 -0.17578,0.0879 -0.43945,0.17579 -0.30762,0.13183 -0.70313,0.26367 -0.74707,0.30762 -1.23047,0 -0.13183,-0.21973 0.39551,-0.83496 0.65918,-0.70313 2.50488,-2.15332 2.10938,-1.36231 4.79004,-3.51563 2.63672,-2.10937 5.44922,-5.1416 2.76855,-2.98828 5.27344,-6.94336 1.18652,-1.58203 2.24121,-3.2959 3.91113,-5.66894 5.05371,-7.03125 3.33984,-4.13086 6.45996,-6.32812 3.12012,-2.19727 5.93262,-3.25196 z"
         style=""
         id="path4193" />
      <path
         d="m 450.88574,187.86808 q -1.53808,4.26269 -2.85644,6.28418 -1.31836,2.02148 -2.06543,2.50488 -0.74707,0.4834 -2.24121,1.05469 -1.49414,0.52734 -4.57032,1.53809 -3.03222,0.96679 -3.60351,0.96679 -0.35156,0 -0.35156,-0.17578 -0.35157,-0.4834 3.64746,-3.16406 3.99902,-2.68067 5.1416,-3.51563 1.18652,-0.83496 2.37304,-2.41699 1.23047,-1.62598 1.80176,-3.64746 -0.61523,-0.0879 -1.27441,0.26367 -0.61524,0.30762 -1.23047,0.30762 -1.62598,-0.0439 -2.72461,-1.05469 -1.09863,-1.01074 -0.92285,-2.24121 0.17578,-0.74707 0.4834,-1.71387 0.35156,-1.01074 1.40625,-3.16406 1.05468,-2.15332 2.10937,-3.55957 1.09864,-1.40625 2.15332,-1.40625 1.80176,0 2.98828,1.53809 1.23047,1.53808 1.23047,3.6914 0,1.09864 -0.13183,2.19727 -0.13184,1.05469 -0.30762,1.80176 -0.13184,0.70312 -0.43945,1.8457 -0.26368,1.09863 -0.61524,2.06543 z"
         style=""
         id="path4195" />
      <path
         d="m 435.19727,177.4091 q -0.0439,1.18652 -0.92286,4.30664 -0.83496,3.12011 -2.24121,6.81152 -1.3623,3.69141 -2.41699,5.58105 -1.05469,1.88965 -2.3291,2.90039 -1.23047,0.9668 -4.04297,1.80176 -2.76855,0.79102 -4.48242,1.09864 -1.66992,0.26367 -2.10938,0.26367 -0.43945,-0.044 -0.52734,-0.35157 -0.0879,-0.30761 0.26367,-0.79101 0.4834,-0.74707 2.41699,-1.93359 1.97754,-1.23047 4.57032,-3.03223 2.59277,-1.8457 3.6914,-3.20801 1.09864,-1.3623 2.46094,-4.08691 1.40625,-2.72461 2.50488,-5.49317 1.14258,-2.76855 1.62598,-3.77929 0.4834,-1.01075 1.05469,-0.9668 0.4834,0.0879 0.4834,0.87891 z"
         style=""
         id="path4197" />
      <path
         d="m 397.36035,192.48234 q -0.30762,0.35156 -0.43945,0.52734 l 0,-5.18555 q 0,-0.0439 1.05469,-1.27441 1.05468,-1.23047 2.59277,-2.72461 1.49414,-1.49414 2.63672,-2.28516 l 1.53808,-2.54882 1.75782,-3.07618 q 0.70312,-1.23046 1.09863,-1.8457 0.26367,-0.43945 0.4834,-0.61523 0.0439,-0.0879 1.23047,1.05468 2.59277,2.76856 3.77929,4.79004 0.26368,0.52735 0.26368,0.9668 0,0.4834 -0.35157,1.4502 -0.74707,1.80175 -1.62597,3.208 -0.79102,1.4502 -1.88965,2.54883 -0.35156,0.35156 -1.14258,0.35156 l -1.36231,0 q -1.14257,0 -2.19726,0.13184 -1.05469,0.13184 -2.10938,0.52734 -0.92285,0.35157 -2.76855,1.62598 -1.71387,1.27441 -2.54883,2.37305 z"
         style=""
         id="path4199" />
      <path
         d="m 410.5,182.50675 q -0.52734,1.49414 -2.02148,2.63672 -1.49415,1.14258 -3.51563,1.93359 -1.80176,0.79102 -3.25195,1.71387 -2.94434,2.02149 -4.92188,4.52637 -0.35156,0.35156 -3.42773,4.83398 -3.73535,5.88867 -4.21875,6.54785 -3.16406,3.99903 -8.17383,7.29493 -1.23047,0.79101 -2.68066,1.53808 -2.02149,1.01074 -2.54883,1.23047 -1.36231,0.74707 -1.53809,0.17578 -0.26367,-0.65918 4.13086,-3.86719 3.42774,-2.41699 5.49317,-4.48242 2.85644,-2.90039 4.92187,-6.15234 0.92285,-1.53809 1.58203,-2.59277 0.61524,-1.05469 0.9668,-1.58204 2.24121,-3.60351 3.6914,-5.66894 1.75782,-2.59277 3.25196,-4.08692 1.40625,-1.40625 2.15332,-2.02148 1.31836,-1.18652 2.85644,-1.97754 l 0.87891,-0.43945 6.37207,0.43945 0,0 z"
         style=""
         id="path4201" />
      <path
         d="m 395.82227,140.62687 q 1.97753,-2.15332 8.4375,-7.38281 6.0205,-4.7461 11.51367,-9.27246 4.39453,-3.55958 7.91015,-6.89942 2.72461,-2.54883 7.11914,-6.85547 6.54786,-6.28418 6.72364,-6.59179 0.26367,0 -0.0879,1.05468 -0.35157,1.01075 -1.80176,3.47168 -1.53809,2.72461 -2.41699,3.7793 -1.4502,1.93359 -3.07618,3.73535 -1.71386,1.8457 -2.68066,2.8125 -1.18652,1.27442 -4.57031,4.21875 -2.90039,2.59277 -7.29492,6.32813 -1.71387,1.45019 -3.25196,2.68066 -1.49414,1.23047 -2.85644,2.24121 -3.2959,2.63672 -7.20703,5.49317 l -6.19629,4.83398 q -0.65918,0.57129 -1.31836,1.09863 -0.61524,0.4834 -1.23047,0.9668 -1.18652,0.9668 -1.40625,0.65918 0.74707,-2.02149 1.62598,-3.60352 1.01074,-1.71386 2.06543,-2.76855 z m -4.17481,10.54687 q -0.0879,1.01075 -0.30762,7.86621 -0.26367,7.60254 -0.96679,12.61231 -0.30762,3.07617 -2.28516,7.25098 -1.88965,4.13086 -5.27344,5.97656 -0.13183,-0.70313 -0.30761,-1.40625 -0.17579,-0.74707 -0.26368,-1.4502 -0.0879,-0.74707 0.0439,-1.45019 0.0879,-0.74707 0.52734,-1.49414 0.43946,-0.26367 2.02149,-1.27442 1.58203,-1.05468 1.66992,-1.88965 0.57129,-1.93359 0.70312,-6.81152 0.13184,-4.79004 0.13184,-6.85547 0,-4.21875 0.70313,-6.45996 0.74707,-2.19726 1.80175,-4.6582 1.4502,-3.03223 1.88965,-3.91113 0.4834,-0.30762 0.35156,0.70312 -0.43945,2.59277 -0.43945,3.25195 z"
         style=""
         id="path4203" />
      <path
         d="m 387.91211,178.94718 q -0.70313,0.0879 -1.40625,1.27442 -0.70313,1.18652 -0.9668,1.71386 -0.74707,1.23047 -1.53808,1.97754 -0.92286,0.92285 -2.417,1.62598 -3.208,1.53808 -4.61425,2.98828 -0.92286,0.92285 -2.15332,3.38379 -2.24121,4.52637 -4.39454,6.02051 -2.15332,1.53808 -7.73437,2.19726 -0.43945,0.0879 -1.05469,0.0879 l -1.01074,0 q -0.79102,0 -0.79102,-0.17578 0,-1.01074 2.68067,-2.72461 2.10937,-1.27441 3.16406,-1.88965 3.16406,-1.80175 4.6582,-2.85644 2.10938,-1.53809 2.76856,-2.98828 2.19726,-4.48243 3.64746,-6.24024 1.62598,-1.93359 3.73535,-2.98828 3.38379,-1.88965 3.91113,-2.24121 l 3.51563,0.83496 z M 366.99414,163.3466 q 0,-0.9668 1.62598,-4.17481 1.66992,-3.25195 2.15332,-3.25195 0.96679,-0.39551 2.8125,1.49414 1.8457,1.8457 1.97754,2.90039 0,1.40625 -1.53809,4.04297 -1.53809,2.63672 -2.24121,2.63672 -0.26367,-0.13184 -1.8457,-1.14258 -1.53809,-1.05469 -2.28516,-1.58203 -0.65918,-0.43946 -0.65918,-0.92285 z"
         style=""
         id="path4205" />
      <path
         d="m 360.18262,164.53312 q -0.17578,1.09863 -0.57129,2.15332 -0.35156,1.01074 -1.23047,2.85644 -0.83496,1.84571 -1.01074,2.10938 -0.70313,1.09863 -1.23047,1.09863 -0.39551,-0.26367 -0.70313,-0.4834 -0.30761,-0.26367 -0.57129,-0.26367 -1.09863,0 -2.90039,0.92285 -1.80175,0.87891 -3.95507,2.85645 -2.15332,1.97754 -3.38379,3.6914 -1.18653,1.71387 -1.18653,2.37305 0,0.9668 0.61524,1.49414 0.52734,0.39551 1.88965,0.92285 1.3623,0.52735 1.80175,0.87891 1.4502,1.01074 1.4502,3.95508 0,4.08691 -1.53809,9.36035 -1.53808,5.22949 -4.04297,9.09668 -1.27441,1.80176 -2.98828,3.60352 -1.71386,1.80175 -3.6914,3.07617 -3.7793,2.50488 -8.70118,2.50488 -5.58105,-0.0879 -8.48144,-3.7793 -1.31836,-1.88965 -1.8457,-3.99902 -0.4834,-2.10938 -0.4834,-3.99902 0,-2.417 0.35156,-4.7461 0.35156,-2.28515 1.09863,-4.61426 1.14258,-3.77929 2.76856,-7.29492 1.62597,-3.51562 2.63672,-5.66894 l 2.06543,-4.39453 q 0.35156,-0.74707 0.74707,-1.4502 0.3955,-0.70312 0.70312,-0.70312 0.43945,0 0.43945,0.70312 0.0439,0.70313 -0.13183,1.05469 -0.4834,1.27441 -0.83496,2.15332 -0.35156,0.83496 -1.05469,2.46094 -0.70312,1.62597 -1.53809,3.51562 -0.79101,1.88965 -1.31835,3.12012 -2.59278,6.85547 -2.59278,10.2832 0,3.60352 2.54883,5.71289 2.59277,2.10938 7.25098,2.10938 3.86718,0 7.4707,-1.80176 2.68066,-1.36231 4.48242,-3.2959 1.80176,-1.93359 2.72461,-3.60351 0.9668,-1.71387 0.9668,-3.07618 0,-0.83496 -1.27442,-1.23047 -1.23047,-0.3955 -1.80175,-0.52734 -0.52735,-0.13184 -1.23047,-0.4834 -1.36231,-0.65918 -2.06543,-1.62597 -0.70313,-1.01075 -0.70313,-2.72461 0,-2.59278 1.66992,-6.5918 1.71387,-3.99902 4.79004,-7.86621 2.50489,-3.16406 4.57032,-5.1416 1.09863,-1.01075 2.8125,-2.28516 1.71386,-1.31836 3.33984,-2.24121 1.97754,-1.14258 3.12012,-1.31836 0.4834,0 0.65918,0.39551 0.17578,0.39551 0.0879,0.74707 z"
         style=""
         id="path4207" />
    </g>
  </g>
</svg>
