<svg width="272px" height="62px" viewBox="0 0 272 62" version="1.1" xmlns="http://www.w3.org/2000/svg" xmlns:xlink="http://www.w3.org/1999/xlink" xmlns:sketch="http://www.bohemiancoding.com/sketch/ns">
    <!-- Generator: Sketch 3.2.2 (9983) - http://www.bohemiancoding.com/sketch -->
    <title>Octopart Logo</title>
    <desc>Created with Sketch.</desc>
    <defs/>
    <g id="Page-1" stroke="none" stroke-width="1" fill="none" fill-rule="evenodd" sketch:type="MSPage">
        <g id="Octopart-Logo" sketch:type="MSArtboardGroup" fill="#FFFFFF">
            <g id="Layer_1-2" sketch:type="MSLayerGroup">
                <path d="M23.6123914,8.80758947 C19.408401,8.80758947 15.8672076,10.3562842 13.0050406,13.4533474 C10.1363819,16.5435579 8.70042959,20.4789263 8.70042959,25.2464 C8.70042959,30.5646947 10.5096516,34.7774316 14.118358,37.8679684 C16.923074,40.2853158 20.1383866,41.4992105 23.7636468,41.4992105 C27.8699379,41.4992105 31.3643914,39.9270211 34.2499284,36.7826421 C37.1354654,33.6516421 38.5814797,29.7802316 38.5814797,25.1889684 C38.5814797,20.6110842 37.1250788,16.7360842 34.2161718,13.5613579 C31.3105107,10.3967474 27.7758091,8.80758947 23.6123914,8.80758947 M23.7298902,0 C30.170253,0 35.7060048,2.45128421 40.3436372,7.35385263 C44.974778,12.2596842 47.288401,18.2407263 47.288401,25.3005684 C47.288401,32.2856842 45.0017184,38.2024421 40.4345203,43.0443158 C35.8640764,47.8858632 30.3182625,50.3035368 23.7974033,50.3035368 C16.9633222,50.3035368 11.2931933,47.8150526 6.77338425,42.8446105 C2.2532506,37.8813474 0,31.9779684 0,25.1348 C0,20.5601789 1.0493747,16.3441789 3.15136993,12.5031158 C5.2598568,8.66564211 8.15221002,5.61589474 11.8345967,3.37084211 C15.5173079,1.12578947 19.4856516,0 23.7298902,0" id="Shape" sketch:type="MSShapeGroup"/>
                <path d="M85.0743294,20.6841789 L78.0318663,24.6874211 C76.7069212,23.2539158 75.3920382,22.2563684 74.1037709,21.7019579 C72.8122578,21.1406947 71.2922387,20.8636526 69.5602673,20.8636526 C66.3923437,20.8636526 63.8330119,21.8677263 61.8822721,23.8726105 C59.9217947,25.8810842 58.9428544,28.4573474 58.9428544,31.5883474 C58.9428544,34.6446211 59.8847924,37.1262526 61.7748353,39.0603263 C63.6613079,40.9944 66.1365728,41.9612737 69.2003055,41.9612737 C72.9940239,41.9612737 75.9467494,40.6090211 78.0588067,37.9006 L84.7413079,42.6883053 C81.1124773,47.6143684 75.9973842,50.0692421 69.3752554,50.0692421 C63.4292315,50.0692421 58.7714749,48.2265368 55.4049069,44.5274211 C52.0350931,40.8286316 50.3469403,36.5010316 50.3469403,31.5410316 C50.3469403,28.0990526 51.1642387,24.9445579 52.7952649,22.0400211 C54.4331074,19.1560421 56.7165442,16.8839053 59.6491456,15.2239368 C62.5785012,13.5773474 65.857432,12.7455684 69.4794463,12.7455684 C72.8359523,12.7455684 75.8458043,13.4386632 78.5197136,14.8147368 C81.1864821,16.1875474 83.37579,18.1519684 85.0743294,20.6841789" id="Shape" sketch:type="MSShapeGroup"/>
                <path d="M92.7594654,0.5828 L101.244697,0.5828 L101.244697,13.671 L106.316296,13.671 L106.316296,21.2141158 L101.244697,21.2141158 L101.244697,49.1451158 L92.7594654,49.1451158 L92.7594654,21.2141158 L88.4581002,21.2141158 L88.4581002,13.671 L92.7594654,13.671 L92.7594654,0.5828 Z" id="Shape" sketch:type="MSShapeGroup"/>
                <path d="M172.272076,20.8626737 C169.645556,20.8626737 167.46274,21.8331368 165.734014,23.7502421 C163.998797,25.6843158 163.127618,28.2064105 163.127618,31.3171789 C163.127618,34.4919053 163.998797,37.0580526 165.734014,39.0156211 C167.46274,40.9767789 169.645556,41.9606211 172.272076,41.9606211 C174.821346,41.9606211 176.966835,40.9598105 178.708869,38.9683053 C180.454473,36.9768 181.322081,34.4344737 181.322081,31.3475263 C181.322081,28.2775474 180.471351,25.7619789 178.752687,23.8044105 C177.04084,21.8399895 174.884964,20.8626737 172.272076,20.8626737 L172.272076,20.8626737 Z M163.463885,13.6713263 L163.463885,17.5290316 C164.994291,15.9366105 166.642196,14.7429474 168.417986,13.9451053 C170.190205,13.1472632 172.087064,12.7481789 174.111484,12.7481789 C178.507303,12.7481789 182.236754,14.4995158 185.314119,18.0025158 C188.384668,21.5051895 189.921566,26.0021474 189.921566,31.4760947 C189.921566,36.7571895 188.330788,41.1797474 185.152802,44.7398526 C181.981308,48.2934316 178.2181,50.0718526 173.862854,50.0718526 C171.922177,50.0718526 170.119446,49.7132316 168.444926,48.9829368 C166.776573,48.2627579 165.118606,47.0726842 163.463885,45.4296842 L163.463885,62.1217158 L154.975733,62.1217158 L154.975733,13.6713263 L163.463885,13.6713263 Z" id="Shape" sketch:type="MSShapeGroup"/>
                <path d="M211.0918,20.8626737 C208.502282,20.8626737 206.356792,21.8399895 204.641375,23.8044105 C202.929527,25.7619789 202.071981,28.2775474 202.071981,31.3475263 C202.071981,34.4344737 202.946406,36.9768 204.688439,38.9683053 C206.434043,40.9598105 208.576286,41.9606211 211.12231,41.9606211 C213.752076,41.9606211 215.931322,40.9767789 217.666864,39.0156211 C219.395265,37.0580526 220.263198,34.4919053 220.263198,31.3171789 C220.263198,28.2064105 219.395265,25.6843158 217.666864,23.7502421 C215.931322,21.8331368 213.74526,20.8626737 211.0918,20.8626737 L211.0918,20.8626737 Z M219.933422,13.6713263 L228.425146,13.6713263 L228.425146,49.1454421 L219.933422,49.1454421 L219.933422,45.4228316 C218.285518,47.0726842 216.624305,48.2562316 214.959523,48.9829368 C213.297986,49.7132316 211.49558,50.0718526 209.554902,50.0718526 C205.199656,50.0718526 201.423141,48.2934316 198.251647,44.7398526 C195.063274,41.1797474 193.476067,36.7571895 193.476067,31.4760947 C193.476067,26.0021474 195.012964,21.5051895 198.093575,18.0025158 C201.174186,14.4995158 204.907208,12.7481789 209.305947,12.7481789 C211.327446,12.7481789 213.227551,13.1472632 215.006587,13.9451053 C216.778807,14.7429474 218.423465,15.9366105 219.933422,17.5290316 L219.933422,13.6713263 Z" id="Shape" sketch:type="MSShapeGroup"/>
                <path d="M233.300372,13.6713263 L240.682348,13.6713263 L240.682348,18.1141158 C241.445766,16.3591895 242.4682,15.0235789 243.739589,14.1209895 C245.007408,13.2079579 246.399542,12.7481789 247.916315,12.7481789 C248.979322,12.7481789 250.099131,13.0558947 251.269575,13.6612105 L248.693365,21.2989579 C247.717995,20.7781579 246.927637,20.5180842 246.305413,20.5180842 C245.027532,20.5180842 243.954788,21.3632421 243.073547,23.0571474 C242.195876,24.7644316 241.755093,28.0882842 241.755093,33.0482842 L241.782033,34.7758 L241.782033,49.1454421 L233.300372,49.1454421 L233.300372,13.6713263 Z" id="Shape" sketch:type="MSShapeGroup"/>
                <path d="M258.346119,0.5828 L266.834597,0.5828 L266.834597,13.671 L271.902625,13.671 L271.902625,21.2141158 L266.834597,21.2141158 L266.834597,49.1451158 L258.346119,49.1451158 L258.346119,21.2141158 L254.05157,21.2141158 L254.05157,13.671 L258.346119,13.671 L258.346119,0.5828 Z" id="Shape" sketch:type="MSShapeGroup"/>
                <path d="M136.571589,31.3857053 C136.571589,35.0743789 133.413728,38.0666947 129.515819,38.0666947 C125.62148,38.0666947 122.47011,35.0743789 122.47011,31.3857053 C122.47011,27.6970316 125.62148,24.7047158 129.515819,24.7047158 C133.413728,24.7047158 136.571589,27.6970316 136.571589,31.3857053 L136.571589,31.3857053 Z M152.519618,35.6222632 L152.519618,27.1426211 L144.653365,27.1426211 C144.313527,25.8915263 143.832496,24.7115684 143.223905,23.5991579 L148.762902,18.0305789 L142.800325,12.0394211 L137.338578,17.5300105 C136.215198,16.8708526 135.014568,16.3536421 133.736687,15.9917579 L133.736687,8.25937895 L125.29852,8.25937895 L125.29852,15.9917579 C124.023885,16.3536421 122.823255,16.8708526 121.7002,17.5267474 L116.241699,12.0394211 L110.275551,18.0305789 L115.818119,23.6024211 C115.205957,24.7115684 114.724926,25.8915263 114.385413,27.1426211 L106.515589,27.1426211 L106.515589,35.6222632 L114.385413,35.6222632 C114.72168,36.8766211 115.205957,38.0598421 115.818119,39.1689895 L110.275551,44.7408316 L116.241699,50.7319895 L121.7002,45.2446632 C122.823255,45.9005579 124.023885,46.4177684 125.29852,46.7796526 L125.29852,54.5087684 L133.736687,54.5087684 L133.736687,46.7796526 C135.014568,46.4177684 136.218444,45.9005579 137.341823,45.2446632 L142.800325,50.7319895 L148.762902,44.7408316 L143.223905,39.1722526 C143.832496,38.0598421 144.316773,36.8766211 144.656611,35.6222632 L152.519618,35.6222632 Z" id="Shape" sketch:type="MSShapeGroup"/>
            </g>
        </g>
    </g>
</svg>
